# xmcd CD database file
#
# Track frame offsets:
#	150
#	15140
#	26237
#	42765
#
# Disc length: 760 seconds
#
# Revision: 0
# Processed by: cddbd v1.5.1PL2 Copyright (c) Steve Scherf et al.
# Submitted via: CDex 1.51
#
DISCID=2102f604
DTITLE=Elvis Costello - Sulky Girl
DYEAR=1995
DGENRE=Pop
TTITLE0=Sulky Girl (single Version)
TTITLE1=Puppet Girl
TTITLE2=Basement Kiss
TTITLE3=We Despise You
EXTD=YEAR: 1995
EXTT0=
EXTT1=
EXTT2=
EXTT3=
PLAYORDER=
